<svg fill="none" xmlns="http://www.w3.org/2000/svg" viewBox="0 0 512 512">
  <path d="M261.972 47.6058s1.408 86.9542-38.166 120.3782c0 0 25.777 29.622 38.166 36.144h-.101c12.394-6.522 38.17-36.144 38.17-36.144-39.573-33.424-38.17-120.3782-38.17-120.3782" stroke="currentColor" stroke-width="24" stroke-miterlimit="10" stroke-linecap="round" stroke-linejoin="round"/>
  <path d="M418.132 370.721s2.469-146.182-131.365-156.864c-8.032-.646-16.56-.79-25.611-.406-9.051-.389-17.595-.256-25.632.384-133.813 10.326-131.328 153.248-131.328 153.248l-21.6748 47.206 36.7098 23.418 38.458-32.357" stroke="currentColor" stroke-width="24" stroke-miterlimit="10" stroke-linejoin="round"/>
  <path d="M154.638 407.12h149.99" stroke="currentColor" stroke-width="24" stroke-miterlimit="10" stroke-linecap="round"/>
  <path d="m301.596 403.872 34.026 47.958 106.214-17.622-14.48-29.226" stroke="currentColor" stroke-width="24" stroke-miterlimit="10" stroke-linejoin="round"/>
  <path d="m434.639 362.23-182.998-37.963c6.902 4.715 11.51 12.571 11.739 21.365l166.416 34.326c1.979.762 4.832 4.554 4.011 8.501-.763 3.685-4.678 6.16-8.678 5.328l-165.386-34.283c-4.224 7.222-11.675 12.299-20.299 13.195 1.867 1.237 3.115 2 3.115 2l178.842 37.072c1.76.368 3.563.555 5.355.555 12.096 0 22.635-8.48 25.04-20.155 2.645-12.816-5.211-26.528-17.157-29.941Z" fill="currentColor"/>
  <path d="M229.63 303.777c-22.32 0-40.474 18.202-40.474 40.57 0 22.363 18.154 40.56 40.474 40.56 22.326 0 40.486-18.197 40.486-40.56.005-22.368-18.16-40.57-40.486-40.57Zm15.366 63.392c-.219.149-.438.304-.662.448-.005.005-.01.005-.016.01-.538.331-1.109.624-1.68.918-.026.016-.058.032-.09.048-.011.005-.027.01-.043.021-.411.203-.816.4-1.243.581-3.546 1.702-7.445 2.774-11.632 2.774-15.184 0-27.536-12.384-27.536-27.616s12.352-27.627 27.536-27.627c15.184 0 27.542 12.389 27.542 27.627 0 7.957-3.424 15.077-8.806 20.117-1.024.997-2.149 1.893-3.37 2.699Z" fill="currentColor"/>
</svg>
