<svg xmlns="http://www.w3.org/2000/svg" width="128" height="128">
  <path fill="none" stroke="current" stroke-width="4" stroke-linecap="round" stroke-linejoin="round" stroke-miterlimit="10" d="M64.285 18.369s.264 16.304-7.156 22.571c0 0 4.833 5.554 7.156 6.777h-.019c2.324-1.223 7.157-6.777 7.157-6.777-7.42-6.267-7.157-22.571-7.157-22.571"/>
  <path fill="none" stroke="current" stroke-width="4.849" stroke-linejoin="round" stroke-miterlimit="10" d="M93.565 78.953s.463-27.409-24.631-29.412c-1.506-.121-3.105-.148-4.802-.076-1.697-.073-3.299-.048-4.806.072-25.09 1.936-24.624 28.734-24.624 28.734l-4.064 8.851 6.883 4.391 7.211-6.067"/>
  <path fill="none" stroke="current" stroke-width="4.849" stroke-linecap="round" stroke-miterlimit="10" d="M44.16 85.778h28.123"/>
  <path fill="none" stroke="current" stroke-width="4.849" stroke-linejoin="round" stroke-miterlimit="10" d="M71.527 85.169l6.38 8.992 19.915-3.304-2.715-5.48"/>
  <path fill="current" d="M96.66 78.111l-34.312-7.118c1.294.884 2.158 2.357 2.201 4.006l31.203 6.436c.371.143.906.854.752 1.594-.143.691-.877 1.155-1.627.999L63.867 77.6c-.792 1.354-2.189 2.306-3.806 2.474.35.232.584.375.584.375L94.178 87.4c.33.069.668.104 1.004.104 2.268 0 4.244-1.59 4.695-3.779.496-2.403-.977-4.974-3.217-5.614z"/>
  <path fill="current" d="M58.221 67.151c-4.185 0-7.589 3.413-7.589 7.607 0 4.193 3.404 7.605 7.589 7.605 4.186 0 7.591-3.412 7.591-7.605.001-4.194-3.405-7.607-7.591-7.607zm2.881 11.886c-.041.028-.082.057-.124.084-.001.001-.002.001-.003.002-.101.062-.208.117-.315.172-.005.003-.011.006-.017.009-.002.001-.005.002-.008.004-.077.038-.153.075-.233.109-.665.319-1.396.52-2.181.52-2.847 0-5.163-2.322-5.163-5.178s2.316-5.18 5.163-5.18c2.847 0 5.164 2.323 5.164 5.18 0 1.492-.642 2.827-1.651 3.772-.192.187-.403.355-.632.506z"/>
</svg>
