<svg width="1024" height="1024" viewBox="0 0 1024 1024" fill="none" xmlns="http://www.w3.org/2000/svg">
<path d="M522.942 95.2116C522.942 95.2116 525.64 269.121 449.817 335.969C449.817 335.969 499.204 395.212 522.942 408.257H522.748C546.497 395.212 595.884 335.969 595.884 335.969C520.061 269.121 522.748 95.2116 522.748 95.2116" fill="#3B82F6"/>
<path d="M522.942 95.2116C522.942 95.2116 525.64 269.121 449.817 335.969C449.817 335.969 499.204 395.212 522.942 408.257H522.748C546.497 395.212 595.884 335.969 595.884 335.969C520.061 269.121 522.748 95.2116 522.748 95.2116" stroke="#3B82F6" stroke-width="24" stroke-miterlimit="10" stroke-linecap="round" stroke-linejoin="round"/>
<path d="M822.147 741.441C822.147 741.441 826.878 449.078 570.449 427.713C555.06 426.422 538.72 426.134 521.379 426.902C504.037 426.124 487.667 426.39 472.267 427.67C215.879 448.321 220.641 734.166 220.641 734.166L179.112 828.577L249.447 875.414L323.135 810.7" fill="#3B82F6"/>
<path d="M822.147 741.441C822.147 741.441 826.878 449.078 570.449 427.713C555.06 426.422 538.72 426.134 521.379 426.902C504.037 426.124 487.667 426.39 472.267 427.67C215.879 448.321 220.641 734.166 220.641 734.166L179.112 828.577L249.447 875.414L323.135 810.7" stroke="#3B82F6" stroke-width="24" stroke-miterlimit="10" stroke-linejoin="round"/>
<path d="M540 768L356 809H550L730 821L849 806L865 768L853 743L812 735H748L540 768Z" fill="#3B82F6" stroke="#3B82F6"/>
<path d="M317.29 814.241H604.672" stroke="#3B82F6" stroke-width="24" stroke-miterlimit="10" stroke-linecap="round"/>
<path d="M598.862 807.745L664.058 903.659L867.564 868.417L839.82 809.963" fill="#3B82F6"/>
<path d="M598.862 807.745L664.058 903.659L867.564 868.417L839.82 809.963" stroke="#3B82F6" stroke-width="24" stroke-miterlimit="10" stroke-linejoin="round"/>
<rect x="505.386" y="655.462" width="385.434" height="72.1339" rx="36.0669" transform="rotate(13.447 505.386 655.462)" fill="#60A5FA" stroke="#60A5FA" stroke-width="24"/>
<circle cx="468.5" cy="681.5" r="77.5" fill="#60A5FA" stroke="#60A5FA" stroke-width="24"/>
</svg>
