<svg fill="none" xmlns="http://www.w3.org/2000/svg" viewBox="0 0 1024 1024"><path d="M522.942 95.212s2.698 173.909-73.125 240.757c0 0 49.387 59.243 73.125 72.288h-.194c23.749-13.045 73.136-72.288 73.136-72.288-75.823-66.848-73.136-240.757-73.136-240.757" fill="#3B82F6"/><path d="M522.942 95.212s2.698 173.909-73.125 240.757c0 0 49.387 59.243 73.125 72.288h-.194c23.749-13.045 73.136-72.288 73.136-72.288-75.823-66.848-73.136-240.757-73.136-240.757" stroke="#3B82F6" stroke-width="24" stroke-miterlimit="10" stroke-linecap="round" stroke-linejoin="round"/><path d="M822.147 741.441s4.731-292.363-251.698-313.728c-15.389-1.291-31.729-1.579-49.07-.811-17.342-.778-33.712-.512-49.112.768-256.388 20.651-251.626 306.496-251.626 306.496l-41.529 94.411 70.335 46.837 73.688-64.714" fill="#3B82F6"/><path d="M822.147 741.441s4.731-292.363-251.698-313.728c-15.389-1.291-31.729-1.579-49.07-.811-17.342-.778-33.712-.512-49.112.768-256.388 20.651-251.626 306.496-251.626 306.496l-41.529 94.411 70.335 46.837 73.688-64.714" stroke="#3B82F6" stroke-width="24" stroke-miterlimit="10" stroke-linejoin="round"/><path d="m540 768-184 41h194l180 12 119-15 16-38-12-25-41-8h-64l-208 33Z" fill="#3B82F6" stroke="#3B82F6"/><path d="M317.29 814.241h287.382" stroke="#3B82F6" stroke-width="24" stroke-miterlimit="10" stroke-linecap="round"/><path d="m598.862 807.745 65.196 95.914 203.506-35.242-27.744-58.454" fill="#3B82F6"/><path d="m598.862 807.745 65.196 95.914 203.506-35.242-27.744-58.454" stroke="#3B82F6" stroke-width="24" stroke-miterlimit="10" stroke-linejoin="round"/><rect x="505.386" y="655.462" width="385.434" height="72.134" rx="36.067" transform="rotate(13.447 505.386 655.462)" fill="#60A5FA" stroke="#60A5FA" stroke-width="24"/><circle cx="468.5" cy="681.5" r="77.5" fill="#60A5FA" stroke="#60A5FA" stroke-width="24"/></svg>