<svg width="216" height="170" viewBox="0 0 216 170" fill="none" xmlns="http://www.w3.org/2000/svg">
<g filter="url(#filter0_df_77:12)">
<path d="M192.7 74.6C203.193 74.6 211.7 66.0934 211.7 55.6C211.7 45.1066 203.193 36.6 192.7 36.6C182.207 36.6 173.7 45.1066 173.7 55.6C173.7 66.0934 182.207 74.6 192.7 74.6Z" fill="url(#paint0_linear_77:12)"/>
</g>
<g filter="url(#filter1_bdf_77:12)">
<path d="M185.5 152.2H55.5C50 152.2 45.5 147.7 45.5 142.2V62.2C45.5 56.7 50 52.2 55.5 52.2H185.5C191 52.2 195.5 56.7 195.5 62.2V142.2C195.5 147.7 191 152.2 185.5 152.2Z" fill="url(#paint1_linear_77:12)" shape-rendering="crispEdges"/>
<path d="M185.5 152.2H55.5C50 152.2 45.5 147.7 45.5 142.2V62.2C45.5 56.7 50 52.2 55.5 52.2H185.5C191 52.2 195.5 56.7 195.5 62.2V142.2C195.5 147.7 191 152.2 185.5 152.2Z" stroke="url(#paint2_linear_77:12)" stroke-miterlimit="10" shape-rendering="crispEdges"/>
</g>
<g filter="url(#filter2_bi_77:12)">
<path d="M72.5 4.1L6.20001 70.4H156.2L89.9 4.1C85.1 -0.7 77.3 -0.7 72.5 4.1Z" fill="url(#paint3_linear_77:12)"/>
<path d="M72.5 4.1L6.20001 70.4H156.2L89.9 4.1C85.1 -0.7 77.3 -0.7 72.5 4.1Z" stroke="url(#paint4_linear_77:12)" stroke-miterlimit="10"/>
</g>
<g filter="url(#filter3_bi_77:12)">
<path d="M146 62H15C9.47715 62 5 66.4772 5 72V138C5 143.523 9.47715 148 15 148H146C151.523 148 156 143.523 156 138V72C156 66.4772 151.523 62 146 62Z" fill="url(#paint5_linear_77:12)"/>
</g>
<g filter="url(#filter4_bdi_77:12)">
<path d="M71.4 121C76.3 125 83.3 125.1 88.4 121.3L156.5 71.5L156.2 153.3C156.2 158.8 151.7 163.3 146.2 163.3H16.2C10.7 163.3 6.20001 158.8 6.20001 153.3L5.5 71C26.9 88.4 50.1 103.5 71.4 121Z" fill="url(#paint6_linear_77:12)" shape-rendering="crispEdges"/>
<path d="M71.4 121C76.3 125 83.3 125.1 88.4 121.3L156.5 71.5L156.2 153.3C156.2 158.8 151.7 163.3 146.2 163.3H16.2C10.7 163.3 6.20001 158.8 6.20001 153.3L5.5 71C26.9 88.4 50.1 103.5 71.4 121Z" stroke="url(#paint7_linear_77:12)" stroke-miterlimit="10" shape-rendering="crispEdges"/>
</g>
<g filter="url(#filter5_di_77:12)">
<path d="M182.7 139.5H169.1C167.3 139.5 165.9 138.1 165.9 136.3V112.7C165.9 110.9 167.3 109.5 169.1 109.5H182.7C184.5 109.5 185.9 110.9 185.9 112.7V136.3C185.9 138.1 184.4 139.5 182.7 139.5Z" fill="white"/>
</g>
<path d="M38.8 81.4H124.4" stroke="url(#paint8_linear_77:12)" stroke-width="5" stroke-miterlimit="10" stroke-linecap="round"/>
<path d="M48 95.4H115.1" stroke="url(#paint9_linear_77:12)" stroke-width="5" stroke-miterlimit="10" stroke-linecap="round"/>
<defs>
<filter id="filter0_df_77:12" x="169.7" y="34.6" width="46" height="46" filterUnits="userSpaceOnUse" color-interpolation-filters="sRGB">
<feFlood flood-opacity="0" result="BackgroundImageFix"/>
<feColorMatrix in="SourceAlpha" type="matrix" values="0 0 0 0 0 0 0 0 0 0 0 0 0 0 0 0 0 0 127 0" result="hardAlpha"/>
<feOffset dy="2"/>
<feGaussianBlur stdDeviation="2"/>
<feComposite in2="hardAlpha" operator="out"/>
<feColorMatrix type="matrix" values="0 0 0 0 0.47451 0 0 0 0 0.14902 0 0 0 0 1 0 0 0 0.25 0"/>
<feBlend mode="normal" in2="BackgroundImageFix" result="effect1_dropShadow_77:12"/>
<feBlend mode="normal" in="SourceGraphic" in2="effect1_dropShadow_77:12" result="shape"/>
<feGaussianBlur stdDeviation="0.5" result="effect2_foregroundBlur_77:12"/>
</filter>
<filter id="filter1_bdf_77:12" x="41" y="47.7" width="159" height="111" filterUnits="userSpaceOnUse" color-interpolation-filters="sRGB">
<feFlood flood-opacity="0" result="BackgroundImageFix"/>
<feGaussianBlur in="BackgroundImage" stdDeviation="2"/>
<feComposite in2="SourceAlpha" operator="in" result="effect1_backgroundBlur_77:12"/>
<feColorMatrix in="SourceAlpha" type="matrix" values="0 0 0 0 0 0 0 0 0 0 0 0 0 0 0 0 0 0 127 0" result="hardAlpha"/>
<feOffset dy="2"/>
<feGaussianBlur stdDeviation="2"/>
<feComposite in2="hardAlpha" operator="out"/>
<feColorMatrix type="matrix" values="0 0 0 0 0.298039 0 0 0 0 0.454902 0 0 0 0 1 0 0 0 0.25 0"/>
<feBlend mode="normal" in2="effect1_backgroundBlur_77:12" result="effect2_dropShadow_77:12"/>
<feBlend mode="normal" in="SourceGraphic" in2="effect2_dropShadow_77:12" result="shape"/>
<feGaussianBlur stdDeviation="0.5" result="effect3_foregroundBlur_77:12"/>
</filter>
<filter id="filter2_bi_77:12" x="0.99292" y="-4" width="160.414" height="78.9" filterUnits="userSpaceOnUse" color-interpolation-filters="sRGB">
<feFlood flood-opacity="0" result="BackgroundImageFix"/>
<feGaussianBlur in="BackgroundImage" stdDeviation="2"/>
<feComposite in2="SourceAlpha" operator="in" result="effect1_backgroundBlur_77:12"/>
<feBlend mode="normal" in="SourceGraphic" in2="effect1_backgroundBlur_77:12" result="shape"/>
<feColorMatrix in="SourceAlpha" type="matrix" values="0 0 0 0 0 0 0 0 0 0 0 0 0 0 0 0 0 0 127 0" result="hardAlpha"/>
<feOffset dy="4"/>
<feGaussianBlur stdDeviation="5"/>
<feComposite in2="hardAlpha" operator="arithmetic" k2="-1" k3="1"/>
<feColorMatrix type="matrix" values="0 0 0 0 0.298039 0 0 0 0 0.454902 0 0 0 0 1 0 0 0 0.25 0"/>
<feBlend mode="normal" in2="shape" result="effect2_innerShadow_77:12"/>
</filter>
<filter id="filter3_bi_77:12" x="1" y="58" width="159" height="94" filterUnits="userSpaceOnUse" color-interpolation-filters="sRGB">
<feFlood flood-opacity="0" result="BackgroundImageFix"/>
<feGaussianBlur in="BackgroundImage" stdDeviation="2"/>
<feComposite in2="SourceAlpha" operator="in" result="effect1_backgroundBlur_77:12"/>
<feBlend mode="normal" in="SourceGraphic" in2="effect1_backgroundBlur_77:12" result="shape"/>
<feColorMatrix in="SourceAlpha" type="matrix" values="0 0 0 0 0 0 0 0 0 0 0 0 0 0 0 0 0 0 127 0" result="hardAlpha"/>
<feOffset dy="4"/>
<feGaussianBlur stdDeviation="5"/>
<feComposite in2="hardAlpha" operator="arithmetic" k2="-1" k3="1"/>
<feColorMatrix type="matrix" values="0 0 0 0 0.439216 0 0 0 0 0.662745 0 0 0 0 1 0 0 0 0.15 0"/>
<feBlend mode="normal" in2="shape" result="effect2_innerShadow_77:12"/>
</filter>
<filter id="filter4_bdi_77:12" x="0.990967" y="65.9417" width="160.013" height="103.858" filterUnits="userSpaceOnUse" color-interpolation-filters="sRGB">
<feFlood flood-opacity="0" result="BackgroundImageFix"/>
<feGaussianBlur in="BackgroundImage" stdDeviation="2"/>
<feComposite in2="SourceAlpha" operator="in" result="effect1_backgroundBlur_77:12"/>
<feColorMatrix in="SourceAlpha" type="matrix" values="0 0 0 0 0 0 0 0 0 0 0 0 0 0 0 0 0 0 127 0" result="hardAlpha"/>
<feOffset dy="2"/>
<feGaussianBlur stdDeviation="2"/>
<feComposite in2="hardAlpha" operator="out"/>
<feColorMatrix type="matrix" values="0 0 0 0 0.298039 0 0 0 0 0.454902 0 0 0 0 1 0 0 0 0.25 0"/>
<feBlend mode="normal" in2="effect1_backgroundBlur_77:12" result="effect2_dropShadow_77:12"/>
<feBlend mode="normal" in="SourceGraphic" in2="effect2_dropShadow_77:12" result="shape"/>
<feColorMatrix in="SourceAlpha" type="matrix" values="0 0 0 0 0 0 0 0 0 0 0 0 0 0 0 0 0 0 127 0" result="hardAlpha"/>
<feOffset dy="4"/>
<feGaussianBlur stdDeviation="5"/>
<feComposite in2="hardAlpha" operator="arithmetic" k2="-1" k3="1"/>
<feColorMatrix type="matrix" values="0 0 0 0 0.298039 0 0 0 0 0.454902 0 0 0 0 1 0 0 0 0.15 0"/>
<feBlend mode="normal" in2="shape" result="effect3_innerShadow_77:12"/>
</filter>
<filter id="filter5_di_77:12" x="161.9" y="107.5" width="28" height="38" filterUnits="userSpaceOnUse" color-interpolation-filters="sRGB">
<feFlood flood-opacity="0" result="BackgroundImageFix"/>
<feColorMatrix in="SourceAlpha" type="matrix" values="0 0 0 0 0 0 0 0 0 0 0 0 0 0 0 0 0 0 127 0" result="hardAlpha"/>
<feOffset dy="2"/>
<feGaussianBlur stdDeviation="2"/>
<feComposite in2="hardAlpha" operator="out"/>
<feColorMatrix type="matrix" values="0 0 0 0 0.298039 0 0 0 0 0.454902 0 0 0 0 1 0 0 0 0.25 0"/>
<feBlend mode="normal" in2="BackgroundImageFix" result="effect1_dropShadow_77:12"/>
<feBlend mode="normal" in="SourceGraphic" in2="effect1_dropShadow_77:12" result="shape"/>
<feColorMatrix in="SourceAlpha" type="matrix" values="0 0 0 0 0 0 0 0 0 0 0 0 0 0 0 0 0 0 127 0" result="hardAlpha"/>
<feOffset dy="4"/>
<feGaussianBlur stdDeviation="5"/>
<feComposite in2="hardAlpha" operator="arithmetic" k2="-1" k3="1"/>
<feColorMatrix type="matrix" values="0 0 0 0 0.439216 0 0 0 0 0.662745 0 0 0 0 1 0 0 0 0.25 0"/>
<feBlend mode="normal" in2="shape" result="effect2_innerShadow_77:12"/>
</filter>
<linearGradient id="paint0_linear_77:12" x1="192.7" y1="36.6" x2="192.7" y2="74.6" gradientUnits="userSpaceOnUse">
<stop stop-color="#FF62C0"/>
<stop offset="0.515625" stop-color="#BE35FF"/>
<stop offset="1" stop-color="#7926FF"/>
</linearGradient>
<linearGradient id="paint1_linear_77:12" x1="91" y1="75" x2="186.5" y2="167.5" gradientUnits="userSpaceOnUse">
<stop stop-color="#D4B2FF" stop-opacity="0.1"/>
<stop offset="1" stop-color="#70A9FF" stop-opacity="0.8"/>
</linearGradient>
<linearGradient id="paint2_linear_77:12" x1="95" y1="57.5" x2="184" y2="164" gradientUnits="userSpaceOnUse">
<stop stop-color="#D4B2FF" stop-opacity="0.1"/>
<stop offset="1" stop-color="#D4B2FF" stop-opacity="0.8"/>
</linearGradient>
<linearGradient id="paint3_linear_77:12" x1="46" y1="16" x2="111" y2="79.5" gradientUnits="userSpaceOnUse">
<stop stop-color="#E4F9FF" stop-opacity="0.1"/>
<stop offset="1" stop-color="#E4F9FF" stop-opacity="0.8"/>
</linearGradient>
<linearGradient id="paint4_linear_77:12" x1="68.5" y1="14.5" x2="123.5" y2="70" gradientUnits="userSpaceOnUse">
<stop stop-color="#E4F9FF" stop-opacity="0.1"/>
<stop offset="1" stop-color="#E4F9FF" stop-opacity="0.8"/>
</linearGradient>
<linearGradient id="paint5_linear_77:12" x1="39.5" y1="64.5" x2="89.5" y2="108" gradientUnits="userSpaceOnUse">
<stop stop-color="white" stop-opacity="0.2"/>
<stop offset="1" stop-color="white" stop-opacity="0.8"/>
</linearGradient>
<linearGradient id="paint6_linear_77:12" x1="34.5" y1="79.5" x2="131" y2="171.5" gradientUnits="userSpaceOnUse">
<stop stop-color="#E4F9FF" stop-opacity="0.1"/>
<stop offset="1" stop-color="#E4F9FF" stop-opacity="0.8"/>
</linearGradient>
<linearGradient id="paint7_linear_77:12" x1="27" y1="79" x2="140.5" y2="157.5" gradientUnits="userSpaceOnUse">
<stop stop-color="#E4F9FF" stop-opacity="0.1"/>
<stop offset="1" stop-color="#E4F9FF" stop-opacity="0.8"/>
</linearGradient>
<linearGradient id="paint8_linear_77:12" x1="72.5" y1="81.5" x2="112" y2="81.4999" gradientUnits="userSpaceOnUse">
<stop stop-color="#70A9FF"/>
<stop offset="1" stop-color="#4C74FF"/>
</linearGradient>
<linearGradient id="paint9_linear_77:12" x1="76" y1="95.5" x2="102.5" y2="95.5" gradientUnits="userSpaceOnUse">
<stop stop-color="#70A9FF"/>
<stop offset="1" stop-color="#4C74FF"/>
</linearGradient>
</defs>
</svg>
